# xmcd
#
# Track frame offsets: 
#        187
#        12755
#        27952
#        42602
#        59257
#        73710
#        85547
#        101010
#        116672
#
# Disc length: 1713 seconds
#
# Revision: 3
# Processed by: cddbd v1.5PL3 Copyright (c) Steve Scherf et al.
# Submitted via: ExactAudioCopy v0.90b4
#
DISCID=7006af09
DTITLE=Keith Whitley - The Best Of Keith Whitley
DYEAR=1900
DGENRE=Country
TTITLE0=Brother Jukebox
TTITLE1=That Stuff
TTITLE2=I Wonder Do You Think Of Me
TTITLE3=A Day In The Life Of A Fool
TTITLE4=On The Other Hand
TTITLE5=Lady's Choice
TTITLE6=Some Old Side Road
TTITLE7=Turn This Thing Around
TTITLE8=I've Got The Heart For You
EXTD=
EXTT0=
EXTT1=
EXTT2=
EXTT3=
EXTT4=
EXTT5=
EXTT6=
EXTT7=
EXTT8=
PLAYORDER=
